<svg id="Layer_1" data-name="Layer 1" xmlns="http://www.w3.org/2000/svg" viewBox="0 0 505.09 291.84">
  <defs>
    <style>
      .cls-1 {
        fill: #fff;
      }

      .cls-2 {
        fill: #f9d342;
      }
    </style>
  </defs>
  <title>mezuro-app</title>
  <path class="cls-1"
    d="M300.9,210.58H287.6V163a6.27,6.27,0,0,0-.54-2.6,7.1,7.1,0,0,0-1.44-2.12,6.69,6.69,0,0,0-2.12-1.42,6.59,6.59,0,0,0-2.6-.51,6.56,6.56,0,0,0-4.72,1.93,6.6,6.6,0,0,0-1.93,4.72v47.63H260.89V163a6.59,6.59,0,0,0-.51-2.6,6.66,6.66,0,0,0-1.41-2.12,6.81,6.81,0,0,0-2.12-1.42,6.67,6.67,0,0,0-2.61-.51,6.59,6.59,0,0,0-2.6.51,6.58,6.58,0,0,0-3.54,3.54,6.59,6.59,0,0,0-.51,2.6v47.63H234.24V163a19.64,19.64,0,0,1,1.56-7.79,19.93,19.93,0,0,1,10.65-10.65,19.64,19.64,0,0,1,7.79-1.56,19.9,19.9,0,0,1,7.17,1.32,19.66,19.66,0,0,1,6.18,3.84,19.91,19.91,0,0,1,21.1-3.6,19.93,19.93,0,0,1,10.65,10.65A19.64,19.64,0,0,1,300.9,163Z"
    transform="translate(-41.56 -25.83)" />
  <path class="cls-1"
    d="M330.72,198.4a7.72,7.72,0,0,0,1.49.3,14.66,14.66,0,0,0,1.48.07,12.61,12.61,0,0,0,3.59-.51,12.9,12.9,0,0,0,3.23-1.47,11.94,11.94,0,0,0,2.7-2.32,12.4,12.4,0,0,0,1.93-3.05l9.3,9.35a25.27,25.27,0,0,1-14.67,10,25.62,25.62,0,0,1-6.08.73,25.21,25.21,0,0,1-9.88-2,24.8,24.8,0,0,1-8.09-5.44,25.53,25.53,0,0,1-5.47-8.3,27.4,27.4,0,0,1-2-10.59,28.28,28.28,0,0,1,2-10.79,24.42,24.42,0,0,1,13.56-13.68,25.72,25.72,0,0,1,9.88-1.9,25.4,25.4,0,0,1,6.1.74,25.5,25.5,0,0,1,10.65,5.56,24.83,24.83,0,0,1,4.09,4.54Zm6.51-26.19a7.1,7.1,0,0,0-1.74-.42,17.49,17.49,0,0,0-1.8-.09,12.59,12.59,0,0,0-4.9,1,11.65,11.65,0,0,0-4,2.72,12.72,12.72,0,0,0-2.68,4.26,15.26,15.26,0,0,0-1,5.6c0,.47,0,1,.08,1.58a16.42,16.42,0,0,0,.23,1.8q.17.9.39,1.74a6.73,6.73,0,0,0,.61,1.49Z"
    transform="translate(-41.56 -25.83)" />
  <path class="cls-1" d="M399.8,210.58H358.26l21-37.07h-21V160.86H399.8l-21,37.07h21Z"
    transform="translate(-41.56 -25.83)" />
  <path class="cls-1"
    d="M443.06,204.77a35.28,35.28,0,0,1-3.28,2.63,25.79,25.79,0,0,1-3.65,2.14,23.56,23.56,0,0,1-3.94,1.44,15.83,15.83,0,0,1-4.11.54,23,23,0,0,1-8.65-1.63A21,21,0,0,1,407.54,198a25.49,25.49,0,0,1-1.74-9.65V160.76h12.65V188.3a12.15,12.15,0,0,0,.77,4.49,9.8,9.8,0,0,0,2.07,3.33,8.49,8.49,0,0,0,3,2,9.93,9.93,0,0,0,3.75.7,7.88,7.88,0,0,0,3.7-.91,10.35,10.35,0,0,0,3-2.39,11.58,11.58,0,0,0,2.05-3.37,10.42,10.42,0,0,0,.74-3.89V160.76h12.7v49.82h-3.07Z"
    transform="translate(-41.56 -25.83)" />
  <path class="cls-1"
    d="M472.69,210.58H460V160.76h3.07l4.19,5.91a22.42,22.42,0,0,1,15.07-5.81h11.21v12.65H482.32a9.71,9.71,0,0,0-3.77.74,9.45,9.45,0,0,0-5.12,5.12,9.75,9.75,0,0,0-.74,3.77Z"
    transform="translate(-41.56 -25.83)" />
  <path class="cls-1"
    d="M546.65,185.23a26.91,26.91,0,0,1-2,10.4,26,26,0,0,1-5.44,8.33,25.6,25.6,0,0,1-8.07,5.53,25.2,25.2,0,0,1-19.82,0,25.49,25.49,0,0,1-13.56-13.86,26.91,26.91,0,0,1-2-10.4,27.32,27.32,0,0,1,2-10.51,25.64,25.64,0,0,1,5.47-8.35,25.31,25.31,0,0,1,8.09-5.51,24.73,24.73,0,0,1,9.89-2,26.23,26.23,0,0,1,9.93,1.88,24.17,24.17,0,0,1,8.07,5.35,25.38,25.38,0,0,1,5.44,8.33A28.21,28.21,0,0,1,546.65,185.23Zm-12.79,0a15,15,0,0,0-1-5.56,13.55,13.55,0,0,0-2.72-4.28,11.87,11.87,0,0,0-4-2.74,13.14,13.14,0,0,0-9.81,0,11.56,11.56,0,0,0-4,2.74,13.28,13.28,0,0,0-2.68,4.28,15.16,15.16,0,0,0-1,5.56,14.38,14.38,0,0,0,1,5.35,13.39,13.39,0,0,0,2.68,4.28,12.31,12.31,0,0,0,4,2.86,11.67,11.67,0,0,0,4.91,1.05,12.43,12.43,0,0,0,4.9-1,12.16,12.16,0,0,0,4-2.74,13.11,13.11,0,0,0,2.72-4.28A15,15,0,0,0,533.86,185.23Z"
    transform="translate(-41.56 -25.83)" />
  <path class="cls-2"
    d="M120.14,51.33H53.87a0,0,0,0,0,0,0V95.61A3.38,3.38,0,0,0,57.22,99H116.8a3.37,3.37,0,0,0,3.37-3.38v-36H250.46a28.76,28.76,0,0,1,2.59-8.33Z"
    transform="translate(-41.56 -25.83)" />
  <path class="cls-2"
    d="M124.11,116.79s0,0,0,0l-82.5,32.49s0,0,0,0l22.11,56.15a3.39,3.39,0,0,0,4.39,1.91l76.27-30a3.38,3.38,0,0,0,1.9-4.38l-19.07-48.41L252.4,75.31a28.79,28.79,0,0,1-2.1-8.13Z"
    transform="translate(-41.56 -25.83)" />
  <path class="cls-2"
    d="M257.15,83l-99.34,99.34h0L78.27,261.86a0,0,0,0,0,0,0L133,316.68a3.39,3.39,0,0,0,4.79,0l74.8-74.81a3.37,3.37,0,0,0,0-4.77l-48.91-48.91,99.72-99.72A29.17,29.17,0,0,1,257.15,83Z"
    transform="translate(-41.56 -25.83)" />
  <path class="cls-2"
    d="M279.17,102.16a37.85,37.85,0,0,1-17.49-4.24l4.13-8a28.86,28.86,0,0,0,13.36,3.24,29.17,29.17,0,1,0-24.71-44.65l-7.62-4.78a38.16,38.16,0,1,1,32.33,58.43Z"
    transform="translate(-41.56 -25.83)" />
  <path class="cls-2"
    d="M278.92,86a22.25,22.25,0,1,1,22.25-22.25A22.28,22.28,0,0,1,278.92,86Zm0-35.5a13.25,13.25,0,1,0,13.25,13.25A13.27,13.27,0,0,0,278.92,50.5Z"
    transform="translate(-41.56 -25.83)" />
</svg>